<svg xmlns="http://www.w3.org/2000/svg" version="1.0" width="512.000000pt" height="512.000000pt" viewBox="0 0 512.000000 512.000000" preserveAspectRatio="xMidYMid meet">

<g transform="translate(0.000000,512.000000) scale(0.100000,-0.100000)" fill="#000000" stroke="none">
<path d="M1995 4264 c-37 -19 -251 -229 -271 -266 -8 -15 -14 -42 -14 -60 0 -28 17 -50 143 -175 137 -137 144 -143 184 -143 72 0 122 76 89 137 -8 15 -51 64 -95 108 l-81 79 89 91 c59 60 91 100 95 122 10 43 -16 91 -59 109 -42 17 -43 17 -80 -2z"/>
<path d="M2653 4266 c-33 -15 -42 -29 -232 -360 -103 -181 -110 -208 -62 -257 35 -34 93 -39 127 -11 12 9 85 127 163 262 155 269 161 288 114 339 -34 37 -68 45 -110 27z"/>
<path d="M3043 4265 c-17 -7 -39 -28 -48 -45 -27 -53 -12 -85 86 -185 l89 -91 -81 -79 c-44 -44 -87 -93 -95 -108 -33 -61 17 -137 89 -137 40 0 47 6 184 143 192 191 192 186 -4 379 -103 101 -153 139 -181 138 -4 -1 -21 -7 -39 -15z"/>
<path d="M1930 2627 c-14 -7 -33 -28 -42 -47 -16 -31 -18 -72 -18 -392 0 -225 4 -367 11 -385 5 -15 54 -72 107 -126 l97 -97 -129 -253 c-71 -138 -133 -258 -139 -265 -7 -9 -71 -12 -258 -12 l-248 0 -23 46 c-31 64 -115 138 -180 160 -85 29 -175 23 -252 -15 -126 -62 -191 -173 -184 -312 7 -126 72 -225 183 -279 42 -21 65 -25 140 -25 78 0 97 4 147 28 64 31 118 87 150 152 l22 45 297 0 c269 0 299 2 319 18 12 10 92 155 179 322 l157 305 97 3 97 3 0 -429 0 -428 -42 -19 c-55 -24 -128 -97 -158 -160 -20 -41 -24 -66 -24 -135 0 -74 3 -92 29 -144 33 -65 92 -123 163 -157 38 -18 64 -23 132 -23 73 0 93 4 142 27 141 69 216 234 173 382 -28 99 -105 188 -187 217 l-28 10 0 429 0 430 97 -3 97 -3 157 -305 c87 -167 167 -312 179 -322 20 -16 50 -18 319 -18 l297 0 22 -45 c32 -65 86 -121 150 -152 50 -24 69 -28 147 -28 106 0 163 23 231 90 88 88 118 230 75 346 -82 217 -356 283 -525 128 -30 -27 -64 -70 -76 -94 l-22 -45 -248 0 c-186 0 -250 3 -257 13 -6 6 -68 126 -139 264 l-129 253 97 97 c53 54 102 111 107 126 7 18 11 160 11 385 0 320 -2 361 -18 392 -9 19 -28 40 -42 47 -36 18 -1224 18 -1260 0z m1120 -322 l0 -135 -490 0 -490 0 0 135 0 135 490 0 490 0 0 -135z m0 -383 c0 -46 -2 -49 -88 -135 l-87 -87 -315 0 -315 0 -88 88 c-85 85 -87 89 -87 135 l0 47 490 0 490 0 0 -48z m-1983 -868 c55 -34 72 -109 39 -172 -20 -40 -63 -62 -117 -62 -35 0 -48 6 -80 39 -33 32 -39 45 -39 80 0 111 106 173 197 115z m3131 -2 c32 -21 52 -64 52 -113 0 -35 -6 -48 -39 -80 -32 -33 -45 -39 -80 -39 -74 0 -127 43 -132 106 -4 53 1 72 27 103 42 50 115 60 172 23z m-1559 -621 c41 -30 58 -87 42 -140 -39 -131 -231 -112 -247 25 -14 112 111 181 205 115z"/>
</g>
</svg>
